<?xml version="1.0" standalone="no"?>
<!DOCTYPE svg PUBLIC "-//W3C//DTD SVG 20010904//EN"
 "http://www.w3.org/TR/2001/REC-SVG-20010904/DTD/svg10.dtd">
<svg version="1.0" xmlns="http://www.w3.org/2000/svg"
 width="260.000000pt" height="260.000000pt" viewBox="0 0 260.000000 260.000000"
 preserveAspectRatio="xMidYMid meet">
<metadata>
Created by potrace 1.11, written by Peter Selinger 2001-2013
</metadata>
<g transform="translate(0.000000,260.000000) scale(0.100000,-0.100000)"
fill="#000000" stroke="none">
<path d="M530 2262 c-49 -6 -109 -33 -124 -57 -9 -13 -16 -41 -16 -61 0 -35 1
-36 28 -29 69 20 132 4 172 -41 l31 -35 -1 -277 c-1 -329 -4 -341 -95 -388
l-53 -28 58 -38 c91 -60 90 -55 90 -415 0 -285 -2 -310 -19 -339 -33 -54 -69
-73 -131 -68 -30 2 -64 5 -75 6 -16 2 -21 -4 -23 -31 -4 -44 14 -78 51 -98 36
-18 105 -20 145 -4 24 10 38 10 73 -2 45 -15 84 -14 131 5 21 8 36 7 60 -3 44
-18 123 -14 161 8 53 31 70 134 21 125 -11 -2 -47 -4 -81 -5 -56 -1 -66 2 -92
27 -16 16 -34 40 -40 55 -8 18 -10 209 -9 616 l3 589 84 -144 c118 -204 151
-261 171 -295 23 -41 485 -837 524 -904 17 -30 44 -62 59 -71 31 -20 88 -17
120 5 17 12 24 12 47 0 40 -20 92 -24 135 -9 27 9 45 10 64 2 14 -5 49 -10 77
-10 80 -1 141 40 148 99 5 45 -5 56 -39 43 -51 -20 -133 5 -161 48 -18 27 -19
43 -29 362 -8 224 -8 267 -6 312 1 32 34 67 97 104 l45 27 -60 38 c-33 20 -65
48 -72 61 -18 33 -21 562 -3 598 39 79 93 100 202 76 25 -6 32 -4 33 8 1 9 2
22 3 29 4 28 -19 70 -48 88 -37 22 -119 25 -155 5 -21 -11 -30 -11 -57 0 -42
18 -112 17 -144 0 -21 -12 -29 -12 -54 1 -20 11 -49 14 -94 11 -58 -4 -68 -8
-93 -36 -29 -32 -37 -74 -20 -100 6 -10 17 -11 42 -4 73 19 139 -3 185 -64
l27 -35 0 -273 c0 -315 0 -314 -91 -370 l-52 -33 59 -38 c37 -23 65 -50 72
-67 13 -32 20 -420 7 -412 -4 3 -37 59 -74 127 -37 67 -79 142 -92 167 -14 25
-155 279 -314 565 -168 303 -301 531 -318 548 -37 33 -105 38 -136 9 -18 -18
-20 -18 -49 0 -37 22 -96 23 -137 2 -25 -13 -35 -14 -57 -4 -36 17 -81 26
-111 22z m692 -837 c130 -225 251 -442 271 -481 43 -86 69 -173 65 -216 -3
-29 -23 3 -177 272 -96 168 -185 325 -199 350 -14 25 -49 86 -77 135 -104 179
-166 320 -159 363 1 6 2 20 3 30 2 22 -10 41 273 -453z"/>
</g>
</svg>
